PathFileType	4	(X/Y/Z)	D:\TRACE\v60_Jaco2_6-2-23\JustArmDRS_Motion1_2-platform.trc
DataRate	CameraRate	NumFrames	NumMarkers	Units	OrigDataRate	OrigDataStartFrame	OrigNumFrames
100.00	100.00	      47	5	mm	100.00	1703	      6808
Frame#	Time	Left_Front			Right_Front			Left_Aft			Right_Aft			Post			
		X1	Y1	Z1	X2	Y2	Z2	X3	Y3	Z3	X4	Y4	Z4	X5	Y5	Z5	

1703	17.020	-849.70587	-15.94702	-644.28619	719.99023	-14.17581	-649.31976	-757.76666	24.27684	490.47763	684.27222	24.37523	500.26315	-64.18084	1271.33435	-1013.85974	
1704	17.030	-850.01160	-16.11595	-644.17279	719.69086	-14.29987	-649.47394	-758.01953	24.40702	490.49231	684.00781	24.41653	500.26511	-64.30933	1271.25488	-1014.06226	
1705	17.040	-850.37134	-16.11275	-643.89124	719.51837	-14.46636	-649.44928	-758.17682	24.52688	490.48901	683.84210	24.47091	500.25171	-64.36785	1271.08936	-1014.20673	
1706	17.050	-850.51044	-16.11541	-643.93048	719.32373	-14.52168	-649.48456	-758.37152	24.72059	490.42776	683.58228	24.54333	500.29147	-64.47672	1270.94336	-1014.37347	
1707	17.060	-850.57648	-16.20541	-644.02930	719.22064	-14.65257	-649.46191	-758.49298	24.79794	490.44351	683.45441	24.66723	500.27454	-64.58721	1270.76782	-1014.43457	
1708	17.070	-850.60950	-16.25719	-644.04431	719.17804	-14.83089	-649.40601	-758.67157	24.93889	490.47577	683.33661	24.72980	500.21820	-64.57245	1270.64392	-1014.61847	
1709	17.080	-850.74927	-16.37741	-644.06744	719.07159	-14.93467	-649.40472	-758.76105	24.96333	490.46854	683.21143	24.79574	500.20981	-64.56974	1270.55750	-1014.84216	
1710	17.090	-850.82672	-16.42381	-644.07159	719.07343	-15.07149	-649.46747	-758.77649	24.97479	490.49200	683.21472	24.84845	500.18066	-64.54515	1270.49023	-1015.11072	
1711	17.100	-850.86884	-16.48338	-644.11304	719.02594	-15.12010	-649.39984	-758.81036	25.03259	490.50140	683.11993	24.88550	500.14612	-64.58819	1270.37427	-1015.23969	
1712	17.110	-850.83795	-16.54223	-644.14154	719.03168	-15.15878	-649.43304	-758.81653	25.08963	490.49719	683.13623	24.96232	500.11774	-64.59908	1270.31543	-1015.51416	
1713	17.120	-850.82501	-16.59053	-644.12091	719.10168	-15.20253	-649.39832	-758.87445	25.17848	490.50790	683.10339	25.00000	500.11075	-64.52051	1270.22424	-1015.73083	
1714	17.130	-850.88458	-16.66847	-644.13885	719.04633	-15.27986	-649.46381	-758.82593	25.15786	490.45868	683.04852	25.03180	500.12949	-64.51083	1270.13110	-1015.93103	
1715	17.140	-850.87134	-16.69446	-644.14606	719.08386	-15.37980	-649.44757	-758.86658	25.23266	490.42734	683.04608	25.06447	500.12057	-64.47350	1270.05518	-1016.01935	
1716	17.150	-850.89948	-16.71909	-644.19037	719.05823	-15.41948	-649.46765	-758.94586	25.29319	490.40491	682.95288	25.10013	500.07507	-64.46934	1269.95935	-1016.09369	
1717	17.160	-850.89740	-16.67293	-644.14020	719.10431	-15.43469	-649.37610	-758.96387	25.33364	490.35086	683.00427	25.14511	500.05157	-64.49576	1269.95569	-1016.11084	
1718	17.170	-850.90271	-16.67185	-644.22559	719.14502	-15.48752	-649.49255	-758.91046	25.39977	490.33847	682.98907	25.18618	500.02219	-64.58207	1269.85889	-1016.18335	
1719	17.180	-850.87238	-16.80499	-644.22205	719.16168	-15.54805	-649.53003	-758.85547	25.40558	490.37003	683.03906	25.19049	500.03830	-64.51169	1269.74792	-1016.15179	
1720	17.190	-850.79645	-16.85843	-644.16656	719.33899	-15.67483	-649.50476	-758.83405	25.40994	490.33752	683.19147	25.26667	500.03763	-64.41522	1269.66357	-1016.11969	
1721	17.200	-850.54663	-16.94585	-644.11639	719.46222	-15.72940	-649.57397	-758.62958	25.41491	490.30444	683.38269	25.30171	499.97324	-64.33353	1269.60205	-1016.13104	
1722	17.210	-850.16437	-16.96594	-644.14032	719.69830	-15.67168	-649.53992	-758.36377	25.44875	490.30768	683.69385	25.31925	499.97040	-64.17700	1269.56506	-1016.16528	
1723	17.220	-849.82422	-17.04850	-644.04779	719.82837	-15.59700	-649.59070	-758.09259	25.45753	490.31085	684.08350	25.30381	499.87515	-63.66030	1269.49353	-1016.25745	
1724	17.230	-849.61176	-17.12573	-644.19312	720.18982	-15.66405	-649.55054	-757.78656	25.46241	490.25174	684.24097	25.28646	499.88159	-63.39404	1269.38000	-1016.39221	
1725	17.240	-849.34991	-17.15973	-644.06494	720.58209	-15.65933	-649.51794	-757.44385	25.51826	490.28430	684.66962	25.23672	499.79105	-62.90213	1269.26282	-1016.81140	
1726	17.250	-849.14545	-17.19571	-644.15155	720.75494	-15.68447	-649.58533	-757.32764	25.57557	490.29822	684.92395	25.24536	499.78052	-62.65636	1269.24487	-1016.96417	
1727	17.260	-848.89014	-17.21914	-644.25226	721.01599	-15.70927	-649.51959	-757.16382	25.63664	490.28262	685.22400	25.28006	499.81238	-62.46179	1269.11816	-1017.16058	
1728	17.270	-848.55219	-17.17168	-644.19647	721.22308	-15.76789	-649.58545	-756.94885	25.73166	490.28644	685.47693	25.32997	499.82922	-62.22553	1269.10425	-1017.21661	
1729	17.280	-848.42200	-17.26741	-644.48151	721.55072	-15.83220	-649.65643	-756.55231	25.75069	490.23978	685.48346	25.21487	499.59891	-61.95605	1269.10474	-1017.26129	
1730	17.290	-848.09381	-17.33935	-644.39929	721.85834	-15.87989	-649.64258	-756.18604	25.67493	490.24411	685.96307	25.26311	499.65393	-61.72438	1269.05078	-1017.28882	
1731	17.300	-847.85217	-17.39149	-644.22168	722.29156	-15.93113	-649.56299	-755.78925	25.54532	490.22153	686.49365	25.27352	499.63879	-61.53185	1269.00452	-1017.33435	
1732	17.310	-847.44843	-17.26105	-644.08478	722.82629	-15.91641	-649.55426	-755.41528	25.58172	490.22482	686.93146	25.32193	499.66168	-61.16299	1269.00623	-1017.36011	
1733	17.320	-846.90625	-17.25555	-644.18707	723.38837	-15.87407	-649.50623	-754.87909	25.61018	490.26868	687.30334	25.33900	499.60342	-60.60895	1268.97571	-1017.34375	
1734	17.330	-846.31494	-17.22746	-644.24689	723.71503	-15.80167	-649.48517	-754.58862	25.61498	490.23148	687.72192	25.37146	499.73022	-59.86618	1269.00183	-1017.49103	
1735	17.340	-845.85803	-17.19043	-644.30566	723.91101	-15.85064	-649.60535	-754.27936	25.60684	490.18100	688.05328	25.36680	499.75333	-59.66053	1269.14136	-1016.77209	
1736	17.350	-845.50439	-17.25987	-644.36188	724.17914	-15.84769	-649.63074	-753.86963	25.66603	490.17136	688.50165	25.32557	499.76047	-59.28901	1269.12170	-1016.60278	
1737	17.360	-845.06549	-17.14306	-644.16669	724.66016	-15.83284	-649.75598	-753.19324	25.56321	490.16953	689.18756	25.23469	499.83188	-58.95501	1269.28455	-1016.59814	
1738	17.370	-844.82910	-17.18951	-644.11127	725.32794	-15.70863	-649.77271	-752.66675	25.51886	490.08646	689.68732	25.28869	499.87262	-58.40329	1269.37415	-1016.61932	
1739	17.380	-844.36316	-17.07169	-644.01135	725.76257	-15.67104	-649.74506	-752.23114	25.45201	490.09457	690.10535	25.30314	499.87842	-58.00816	1269.46191	-1016.66241	
1740	17.390	-843.79797	-16.94650	-644.00269	726.15619	-15.57834	-649.57269	-751.80676	25.38263	490.10858	690.58575	25.32997	499.86331	-57.38765	1269.50464	-1016.70331	
1741	17.400	-843.27393	-16.95437	-644.11340	726.62408	-15.43508	-649.52350	-751.40759	25.36301	490.19424	691.20807	25.32034	499.89944	-56.98693	1269.56311	-1016.55304	
1742	17.410	-842.59552	-16.87197	-644.09076	727.30823	-15.21962	-649.44568	-750.91559	25.29876	490.24951	691.48621	25.31353	499.98157	-56.47042	1269.64697	-1016.36310	
1743	17.420	-842.06171	-16.89832	-644.12659	727.80865	-15.18119	-649.44659	-750.18793	25.30224	490.31445	692.22192	25.11736	499.85947	-55.86029	1269.81982	-1016.00873	
1744	17.430	-841.58252	-16.75511	-644.15210	728.24316	-15.21361	-649.58716	-749.76563	25.25364	490.31656	692.57153	25.02770	499.79993	-55.29590	1269.95459	-1015.74487	
1745	17.440	-841.10144	-16.64493	-644.20154	728.72168	-15.20492	-649.52344	-749.22168	25.16002	490.33801	692.98950	24.93665	499.79205	-55.07932	1270.10645	-1015.74030	
1746	17.450	-840.75549	-16.56952	-644.26379	729.44971	-15.30741	-649.46356	-748.83136	25.14143	490.38275	693.57568	25.01019	499.88080	-54.57592	1270.26648	-1015.62054	
1747	17.460	-839.95245	-16.47088	-644.18933	730.08496	-15.14136	-649.46130	-748.19293	25.08994	490.43225	694.36389	24.95082	499.93137	-53.83961	1270.32043	-1015.50940	
1748	17.470	-839.17731	-16.38469	-644.29633	730.49866	-14.91873	-649.56250	-747.58441	25.06892	490.45633	694.75214	24.86127	499.97311	-53.00017	1270.37939	-1015.35901	
1749	17.480	-838.67084	-16.23977	-644.31036	730.99487	-14.90704	-649.63171	-746.84613	25.02060	490.44980	695.43195	24.74434	499.89001	-52.61727	1270.57739	-1015.15991	
